<svg width="16" height="16" viewBox="0 0 16 16" fill="none" xmlns="http://www.w3.org/2000/svg">
<path d="M14.4002 12.1333L8.66684 7.83334V7.22668C9.76684 6.90001 10.5335 5.78001 10.2868 4.52668C10.1135 3.65334 9.42017 2.92668 8.54684 2.72668C7.37351 2.46001 6.30017 3.08001 5.86684 4.04668C5.66684 4.49334 5.98684 5.00001 6.47351 5.00001C6.73351 5.00001 6.97351 4.85334 7.07351 4.62001C7.22684 4.25334 7.58017 4.00001 8.00017 4.00001C8.55351 4.00001 9.00017 4.44668 9.00017 5.00001C9.00017 5.56001 8.54017 6.01334 7.98017 6.00001C7.62017 5.99334 7.33351 6.30001 7.33351 6.66001V7.83334L1.60017 12.1333C1.08684 12.52 1.36017 13.3333 2.00017 13.3333H8.00017H14.0002C14.6402 13.3333 14.9135 12.52 14.4002 12.1333ZM4.00017 12L8.00017 9.00001L12.0002 12H4.00017Z" fill="black"/>
</svg>
