<svg width="16" height="16" viewBox="0 0 16 16" fill="none" xmlns="http://www.w3.org/2000/svg">
<path d="M14.4002 12.1333L8.66684 7.83333V7.22666C9.76684 6.9 10.5335 5.77999 10.2868 4.52666C10.1135 3.65333 9.42017 2.92666 8.54684 2.72666C7.37351 2.45999 6.30017 3.07999 5.86684 4.04666C5.66684 4.49333 5.98684 4.99999 6.47351 4.99999C6.73351 4.99999 6.97351 4.85333 7.07351 4.61999C7.22684 4.25333 7.58017 3.99999 8.00017 3.99999C8.55351 3.99999 9.00017 4.44666 9.00017 4.99999C9.00017 5.55999 8.54017 6.01333 7.98017 5.99999C7.62017 5.99333 7.33351 6.29999 7.33351 6.65999V7.83333L1.60017 12.1333C1.08684 12.52 1.36017 13.3333 2.00017 13.3333H8.00017H14.0002C14.6402 13.3333 14.9135 12.52 14.4002 12.1333ZM4.00017 12L8.00017 9L12.0002 12H4.00017Z" fill="white"/>
</svg>
