<svg width="128" height="128" viewBox="0 0 128 128" fill="none" xmlns="http://www.w3.org/2000/svg">
<g opacity="0.5">
<path d="M14.5601 112H113.387C117.493 112 120.053 107.573 118.027 104L68.5867 18.6667C66.5067 15.0933 61.3867 15.0933 59.3601 18.6667L9.92007 104C7.89341 107.573 10.4534 112 14.5601 112ZM69.3334 96H58.6667V85.3333H69.3334V96ZM64.0001 74.6667C61.0667 74.6667 58.6667 72.2667 58.6667 69.3333V58.6667C58.6667 55.7333 61.0667 53.3333 64.0001 53.3333C66.9334 53.3333 69.3334 55.7333 69.3334 58.6667V69.3333C69.3334 72.2667 66.9334 74.6667 64.0001 74.6667Z" fill="white"/>
</g>
</svg>
