<svg width="28" height="16" viewBox="0 0 28 16" fill="none" xmlns="http://www.w3.org/2000/svg">
<path d="M9.68687 10.1111H7.19358L10.8162 5.25064C11.2998 4.5719 11.1729 3.60601 10.5333 3.09308C10.3556 2.95086 10.1569 2.86324 9.95207 2.81808C9.8232 2.77831 9.6889 2.75 9.54782 2.75H4.20719C3.40548 2.75 2.75571 3.43953 2.75571 4.29015C2.75571 5.14078 3.40548 5.83098 4.20787 5.83098H6.68217L3.0399 10.7163C2.71501 11.172 2.6716 11.755 2.86762 12.2464C2.86898 12.2504 2.87101 12.2545 2.87305 12.2585C2.90696 12.3414 2.94698 12.4203 2.99513 12.4964C3.00463 12.5113 3.0148 12.5247 3.0243 12.5396C3.06567 12.6009 3.10976 12.6596 3.16063 12.7148C3.18505 12.7418 3.2115 12.7654 3.23795 12.791C3.26712 12.8186 3.29153 12.8496 3.32341 12.8752C3.3363 12.8854 3.35054 12.8914 3.36411 12.9015C3.40752 12.9346 3.45432 12.9622 3.5018 12.9905C3.53503 13.01 3.56759 13.0316 3.6015 13.0478C3.66254 13.0781 3.72766 13.1004 3.79277 13.1213C3.81515 13.128 3.83686 13.1374 3.85924 13.1428C3.9352 13.1631 4.0132 13.1738 4.09324 13.1806C4.10545 13.1812 4.11766 13.1839 4.12987 13.1846C4.15632 13.186 4.18074 13.1927 4.20787 13.1927H9.68687C10.4893 13.1927 11.139 12.5032 11.139 11.6519C11.139 10.8006 10.4893 10.1111 9.68687 10.1111Z" fill="black"/>
<path d="M24.1793 7.54368C24.6324 7.54368 25 7.17836 25 6.72811C25 6.27786 24.6324 5.91254 24.1793 5.91254H23.3355V4.84825H21.4683V5.91254H15.9791V5.40567C15.9791 5.20885 16.0246 5.07472 16.0944 4.99182C16.165 4.90824 16.2491 4.84757 16.4112 4.84757C16.4525 4.84757 16.6248 4.84757 16.8174 4.84757V2.85852H16.1622C15.7933 2.85852 15.4569 2.94951 15.151 3.12409C14.8342 3.3054 14.5785 3.58175 14.3913 3.94707C14.2048 4.31105 14.1098 4.76467 14.1098 5.2958V5.91186H13.2756C12.8225 5.91186 12.4549 6.27719 12.4549 6.72744C12.4549 7.17769 12.8225 7.54301 13.2756 7.54301H14.1098V13.2493H15.9798V7.54368H17.5723V13.25H19.8764V7.54368H21.469V11.3108C21.4656 11.7503 21.5653 12.117 21.7667 12.4102C21.9682 12.7034 22.2422 12.9197 22.5874 13.0579C22.9333 13.1968 23.4664 13.2601 23.8978 13.248C24.0803 13.2433 24.1983 13.248 24.3835 13.248V11.4793H24.1162C23.9731 11.4793 23.8436 11.4578 23.7262 11.4153C23.6089 11.3728 23.5146 11.2926 23.4434 11.1747C23.3722 11.0574 23.3362 10.8869 23.3362 10.6638V7.54301H24.18L24.1793 7.54368Z" fill="black"/>
<path d="M18.7268 5.25471C19.3898 5.25471 19.9273 4.72057 19.9273 4.06168C19.9273 3.40279 19.3898 2.86865 18.7268 2.86865C18.0637 2.86865 17.5262 3.40279 17.5262 4.06168C17.5262 4.72057 18.0637 5.25471 18.7268 5.25471Z" fill="black"/>
</svg>
