<svg width="15" height="15" viewBox="0 0 15 15" fill="none" xmlns="http://www.w3.org/2000/svg">
<path fill-rule="evenodd" clip-rule="evenodd" d="M2.44721 3.22423C1.875 4.04144 1.875 5.19429 1.875 7.5C1.875 9.80571 1.875 10.9586 2.44721 11.7758C2.65892 12.0781 2.92189 12.3411 3.22423 12.5528C4.04144 13.125 5.19429 13.125 7.5 13.125C9.80571 13.125 10.9586 13.125 11.7758 12.5528C12.0781 12.3411 12.3411 12.0781 12.5528 11.7758C13.125 10.9586 13.125 9.80571 13.125 7.5C13.125 5.19429 13.125 4.04144 12.5528 3.22423C12.3411 2.92189 12.0781 2.65892 11.7758 2.44721C10.9586 1.875 9.80571 1.875 7.5 1.875C5.19429 1.875 4.04144 1.875 3.22423 2.44721C2.92189 2.65892 2.65892 2.92189 2.44721 3.22423ZM7.64926 8.78254H9.13857L9.13879 8.78298C9.61801 8.78298 10.0063 9.19761 10.0063 9.70891C10.0063 10.2202 9.61801 10.6348 9.13879 10.6348H5.86574C5.85689 10.6348 5.84832 10.6335 5.83975 10.6322C5.833 10.6312 5.82625 10.6302 5.81938 10.6298C5.81531 10.6295 5.81124 10.629 5.80713 10.6285C5.80392 10.6281 5.80068 10.6277 5.7974 10.6274C5.7495 10.6232 5.7027 10.6168 5.65744 10.6047C5.64932 10.6026 5.64151 10.5998 5.63369 10.597C5.62839 10.5951 5.62308 10.5932 5.61767 10.5916C5.57834 10.5788 5.53988 10.5654 5.50319 10.5474C5.48884 10.5404 5.47502 10.532 5.46122 10.5235C5.45537 10.5199 5.44953 10.5164 5.44364 10.5129L5.43834 10.5097C5.41201 10.4939 5.38597 10.4782 5.36147 10.4595C5.35776 10.4566 5.35381 10.4543 5.34984 10.4519C5.34557 10.4494 5.34128 10.4469 5.3373 10.4437C5.3255 10.4343 5.31538 10.4235 5.30528 10.4128C5.29901 10.4061 5.29275 10.3995 5.2861 10.3931C5.28183 10.389 5.27752 10.3849 5.27322 10.3808C5.26183 10.37 5.25049 10.3592 5.23996 10.3474C5.20986 10.3143 5.18327 10.2791 5.15866 10.2422C5.15649 10.2389 5.15425 10.2357 5.15201 10.2325C5.14836 10.2272 5.1447 10.2219 5.1413 10.2165C5.11274 10.1708 5.08879 10.1231 5.06857 10.0734C5.06813 10.0722 5.06758 10.071 5.06703 10.0698C5.06648 10.0686 5.06593 10.0674 5.0655 10.0662C4.94816 9.77109 4.97431 9.42063 5.16833 9.14663L7.34362 6.20977H5.86552C5.3863 6.20977 4.99804 5.79514 4.99804 5.28384C4.99804 4.77253 5.38652 4.35791 5.86552 4.35791H9.05595C9.14032 4.35791 9.2203 4.37483 9.29743 4.39878C9.4196 4.42581 9.53847 4.47832 9.6446 4.56401C10.0267 4.87251 10.1023 5.45303 9.81335 5.86106L7.64926 8.78254Z" fill="white"/>
</svg>
