<svg width="13" height="12" viewBox="0 0 13 12" fill="none" xmlns="http://www.w3.org/2000/svg">
<path d="M7.89109 1.11007L10.1386 3.35707C10.2021 3.42056 10.2407 3.50474 10.2474 3.59429C10.2541 3.68385 10.2285 3.77283 10.1751 3.84507L10.1391 3.88757L7.89159 6.13957C7.82485 6.20701 7.73502 6.24665 7.64021 6.25049C7.5454 6.25432 7.45267 6.22208 7.38069 6.16025C7.30871 6.09842 7.26285 6.0116 7.25235 5.9173C7.24185 5.823 7.26748 5.72822 7.32409 5.65207L7.36059 5.61007L8.96909 3.99857H3.12109C3.03055 3.99858 2.94306 3.96583 2.87478 3.90637C2.80649 3.84691 2.76203 3.76475 2.74959 3.67507L2.74609 3.62457C2.7461 3.53395 2.77892 3.4464 2.83848 3.3781C2.89804 3.30981 2.98032 3.26539 3.07009 3.25307L3.12109 3.24957L8.96959 3.24907L7.36059 1.64057C7.29716 1.57701 7.25864 1.4928 7.25203 1.40325C7.24543 1.3137 7.27117 1.22474 7.32459 1.15257L7.36059 1.11057C7.42412 1.04693 7.50839 1.00823 7.59806 1.00153C7.68773 0.994831 7.77682 1.02057 7.84909 1.07407L7.89109 1.11057L10.1386 3.35757L7.89109 1.11057V1.11007ZM10.2496 8.32507L10.2526 8.37507C10.2527 8.46577 10.2199 8.55344 10.1604 8.62184C10.1008 8.69024 10.0185 8.73473 9.92859 8.74707L9.87759 8.75057L4.03109 8.75007L5.64109 10.3601C5.70468 10.4235 5.74338 10.5076 5.75017 10.5972C5.75696 10.6868 5.73139 10.7758 5.67809 10.8481L5.64159 10.8901C5.5781 10.9536 5.49392 10.9922 5.40437 10.9989C5.31481 11.0056 5.22583 10.9799 5.15359 10.9266L5.11109 10.8906L2.86109 8.64207C2.79758 8.57857 2.75897 8.4944 2.75227 8.40484C2.74557 8.31529 2.77124 8.2263 2.82459 8.15407L2.86109 8.11207L5.11109 5.86007C5.17792 5.7928 5.26775 5.75334 5.3625 5.74964C5.45725 5.74595 5.54989 5.77828 5.62175 5.84013C5.69362 5.90199 5.73939 5.98877 5.74984 6.08302C5.7603 6.17726 5.73466 6.27197 5.67809 6.34807L5.64159 6.39007L4.03259 8.00007H9.87859C9.96936 8.0001 10.057 8.03306 10.1254 8.09283C10.1937 8.15259 10.238 8.23511 10.2501 8.32507L10.2531 8.37507L10.2501 8.32507H10.2496Z" fill="#ABABAB"/>
</svg>
